<svg fill="none" viewBox="0 0 20 15">
    <rect width="19.6" height="14" y=".5" fill="#fff" rx="2"/>
    <mask id="a" style="mask-type:luminance" width="20" height="15" x="0" y="0" maskUnits="userSpaceOnUse">
        <rect width="19.6" height="14" y=".5" fill="#fff" rx="2"/>
    </mask>
    <g mask="url(#a)">
        <path fill="#043CAE" d="M0 .5h19.6v14H0z"/>
        <path fill="#FFD429" fill-rule="evenodd" d="M9.14 3.493L9.8 3.3l.66.193-.193-.66.193-.66-.66.194-.66-.194.193.66-.193.66zm0 9.334l.66-.194.66.194-.193-.66.193-.66-.66.193-.66-.193.193.66-.193.66zm5.327-4.86l-.66.193L14 7.5l-.193-.66.66.193.66-.193-.194.66.194.66-.66-.193zm-9.994.193l.66-.193.66.193L5.6 7.5l.193-.66-.66.193-.66-.193.194.66-.194.66zm9.369-2.527l-.66.194.193-.66-.194-.66.66.193.66-.193-.193.66.193.66-.66-.194zm-8.743 4.86l.66-.193.66.193-.194-.66.194-.66-.66.194-.66-.194.193.66-.193.66zm7.034-6.568l-.66.193.194-.66-.194-.66.66.194.66-.193-.193.66.193.66-.66-.194zm-5.326 8.276l.66-.193.66.193-.194-.66.194-.66-.66.194-.66-.193.193.66-.193.66zM13.84 10.3l-.66.193.194-.66-.194-.66.66.194.66-.194-.193.66.193.66-.66-.193zM5.1 5.827l.66-.194.66.194-.194-.66.194-.66-.66.193-.66-.193.193.66-.193.66zm7.034 6.181l-.66.193.194-.66-.194-.66.66.194.66-.193-.193.66.193.66-.66-.194zm-5.326-7.89l.66-.193.66.193-.194-.66.194-.66-.66.194-.66-.193.193.66-.193.66z" clip-rule="evenodd"/>
    </g>
</svg>
